<svg xmlns="http://www.w3.org/2000/svg" xmlns:xlink="http://www.w3.org/1999/xlink" width="19" height="16" viewBox="0 0 19 16">
    <defs>
        <path id="prefix__a" d="M4 10.5c-.83 0-1.5.67-1.5 1.5s.67 1.5 1.5 1.5 1.5-.67 1.5-1.5-.67-1.5-1.5-1.5zm0-6c-.83 0-1.5.67-1.5 1.5S3.17 7.5 4 7.5 5.5 6.83 5.5 6 4.83 4.5 4 4.5zm0 12.17a1.33 1.33 0 10-.001 2.659A1.33 1.33 0 004 16.67zM7 19h14v-2H7v2zm0-6h14v-2H7v2zm0-8v2h14V5H7z"/>
    </defs>
    <g fill="none" fill-rule="evenodd" transform="translate(-2 -4)">
        <path d="M0 0L24 0 24 24 0 24z"/>
        <use fill="#FEFFFF" xlink:href="#prefix__a"/>
    </g>
</svg>
