<svg xmlns="http://www.w3.org/2000/svg" xmlns:xlink="http://www.w3.org/1999/xlink" width="131" height="46" viewBox="0 0 131 46">
    <defs>
        <path id="a" d="M14 0a6.821 6.821 0 0 0-1.75 4.554c.07 3.841.537 7.67.583 11.5.082 3.577-1.003 6.934-2.321 10.212a73.116 73.116 0 0 1-1.4 2.68l-1.4-.277c-1.26-.253-2.089-1.46-1.832-2.702a2.32 2.32 0 0 1 2.275-1.851l.513.057-1.143-9.384C7.152 10.614 4.97 6.946 1.75 4.566A14.485 14.485 0 0 0 0 3.45v33.316h7.805a12.605 12.605 0 0 0 4.772 7.705c.583.39 1.073.92 1.423 1.529.35-.61.84-1.127 1.423-1.53a12.605 12.605 0 0 0 4.772-7.704H28V3.438c-.607.334-1.202.702-1.75 1.116-3.22 2.38-5.402 6.049-5.775 10.223l-1.143 9.385.513-.058a2.32 2.32 0 0 1 2.275 1.852c.257 1.242-.572 2.46-1.832 2.702l-1.4.276c-.478-.886-.956-1.771-1.4-2.68-1.318-3.277-2.415-6.635-2.321-10.212.046-3.84.513-7.67.583-11.5C15.75 2.807 15.085 1.22 14 0zM2.333 8.245a11.978 11.978 0 0 1 2.824 6.314l.933 7.74a4.635 4.635 0 0 0-2.438 2.966H2.333V8.245zm23.334 0v17.02h-1.319A4.635 4.635 0 0 0 21.91 22.3l.933-7.74a11.938 11.938 0 0 1 2.824-6.313zM14 23.794a26.178 26.178 0 0 0 2.567 5.726A5.334 5.334 0 0 0 14 31.223a5.306 5.306 0 0 0-2.567-1.703A26.178 26.178 0 0 0 14 23.794zM2.333 27.565h1.319a4.644 4.644 0 0 0 3.266 3.278l1.12.253a12.377 12.377 0 0 0-.466 3.37H2.333v-6.9zm22.015 0h1.319v6.9h-5.25c0-1.161-.164-2.3-.467-3.369l1.12-.253c1.598-.437 2.858-1.69 3.278-3.277zm-14.023 4.06c1.412.195 2.508 1.392 2.508 2.84H9.917c0-.989.151-1.943.408-2.84zm7.35 0c.257.908.408 1.852.408 2.84h-2.916c0-1.449 1.096-2.645 2.508-2.84zm-7.49 5.14h2.648v4.842a10.328 10.328 0 0 1-2.648-4.841zm4.982 0h2.648a10.328 10.328 0 0 1-2.648 4.842v-4.841z"/>
    </defs>
    <g fill="none" fill-rule="evenodd">
        <path fill="#000" fill-rule="nonzero" d="M59.504 7.8l-4.768 8.864c-.459.853-1.01 1.499-1.656 1.936a3.675 3.675 0 0 1-2.104.656c-.587 0-1.195-.128-1.824-.384l.624-1.968c.448.139.821.208 1.12.208.32 0 .608-.077.864-.232.256-.155.49-.397.704-.728l.096-.128L48.144 7.8h2.768l2.976 6.016L56.96 7.8h2.544zm5.45 2.464c.8 0 1.527.184 2.183.552.656.368 1.17.885 1.544 1.552.373.667.56 1.443.56 2.328 0 .885-.187 1.661-.56 2.328a3.964 3.964 0 0 1-1.544 1.552 4.387 4.387 0 0 1-2.184.552c-1.099 0-1.963-.347-2.592-1.04v4.016h-2.496V10.392h2.384v.992c.619-.747 1.52-1.12 2.704-1.12zm-.433 6.816c.64 0 1.165-.216 1.576-.648.41-.432.616-1.01.616-1.736 0-.725-.205-1.304-.616-1.736-.41-.432-.936-.648-1.576-.648s-1.165.216-1.576.648c-.41.432-.616 1.01-.616 1.736 0 .725.205 1.304.616 1.736.41.432.936.648 1.576.648zm13.497-6.688V19h-2.224v-2.464h-1.84L72.322 19h-2.656l1.968-2.816c-.597-.235-1.053-.573-1.368-1.016-.314-.443-.472-.979-.472-1.608 0-1.013.366-1.795 1.096-2.344.731-.55 1.736-.824 3.016-.824h4.112zm-4.064 2.032c-.533 0-.936.096-1.208.288-.272.192-.408.501-.408.928 0 .427.131.739.392.936.262.197.659.296 1.192.296h1.872v-2.448h-1.84zm15.77 4.528v3.904h-2.32V19h-6.049v1.856h-2.32v-3.904h.352c.534-.01.902-.325 1.104-.944.203-.619.331-1.499.384-2.64l.112-2.976h7.504v6.56h1.232zm-6.545-4.512l-.048 1.104c-.032.875-.098 1.59-.2 2.144-.1.555-.29.976-.568 1.264h3.632V12.44H83.18zm11.802 6.688c-.907 0-1.72-.19-2.44-.568a4.222 4.222 0 0 1-1.688-1.576c-.406-.672-.608-1.435-.608-2.288 0-.853.202-1.616.608-2.288a4.222 4.222 0 0 1 1.688-1.576c.72-.379 1.533-.568 2.44-.568.906 0 1.717.19 2.432.568a4.236 4.236 0 0 1 1.68 1.576c.405.672.608 1.435.608 2.288 0 .853-.203 1.616-.608 2.288a4.236 4.236 0 0 1-1.68 1.576c-.715.379-1.526.568-2.432.568zm0-2.048c.64 0 1.165-.216 1.576-.648.41-.432.616-1.01.616-1.736 0-.725-.206-1.304-.616-1.736-.411-.432-.936-.648-1.576-.648s-1.168.216-1.584.648c-.416.432-.624 1.01-.624 1.736 0 .725.208 1.304.624 1.736.416.432.944.648 1.584.648zm12.665-2.576c1.013.341 1.52 1.024 1.52 2.048 0 .779-.294 1.381-.88 1.808-.587.427-1.462.64-2.624.64h-4.592v-8.608h4.4c1.077 0 1.92.195 2.528.584.608.39.912.936.912 1.64 0 .427-.11.803-.328 1.128-.219.325-.531.579-.936.76zm-4.288-.576h1.888c.874 0 1.312-.31 1.312-.928 0-.608-.438-.912-1.312-.912h-1.888v1.84zm2.096 3.376c.917 0 1.376-.315 1.376-.944 0-.33-.107-.573-.32-.728-.214-.155-.55-.232-1.008-.232h-2.144v1.904h2.096zm5.225-6.912h2.48v5.12l4.192-5.12h2.288V19h-2.48v-5.12L112.983 19h-2.304v-8.608zm11.017 0h2.48v5.12l4.192-5.12h2.288V19h-2.48v-5.12L124 19h-2.304v-8.608zm4.32-.928c-1.877 0-2.821-.827-2.832-2.48h1.632c.01.373.115.664.312.872.197.208.488.312.872.312s.68-.104.888-.312c.208-.208.312-.499.312-.872h1.664c-.01 1.653-.96 2.48-2.848 2.48zM59.6 26.8V38h-2.576v-9.088h-5.056V38h-2.576V26.8H59.6zm6.281 11.328c-.907 0-1.72-.19-2.44-.568a4.222 4.222 0 0 1-1.688-1.576c-.405-.672-.608-1.435-.608-2.288 0-.853.203-1.616.608-2.288a4.222 4.222 0 0 1 1.688-1.576c.72-.379 1.533-.568 2.44-.568s1.717.19 2.432.568a4.236 4.236 0 0 1 1.68 1.576c.405.672.608 1.435.608 2.288 0 .853-.203 1.616-.608 2.288a4.236 4.236 0 0 1-1.68 1.576c-.715.379-1.525.568-2.432.568zm0-2.048c.64 0 1.165-.216 1.576-.648.41-.432.616-1.01.616-1.736 0-.725-.205-1.304-.616-1.736-.41-.432-.936-.648-1.576-.648s-1.168.216-1.584.648c-.416.432-.624 1.01-.624 1.736 0 .725.208 1.304.624 1.736.416.432.944.648 1.584.648zm11.161-6.816c.8 0 1.528.184 2.184.552.656.368 1.171.885 1.544 1.552.374.667.56 1.443.56 2.328 0 .885-.186 1.661-.56 2.328a3.964 3.964 0 0 1-1.544 1.552 4.387 4.387 0 0 1-2.184.552c-1.098 0-1.962-.347-2.592-1.04v4.016h-2.496V29.392h2.384v.992c.619-.747 1.52-1.12 2.704-1.12zm-.432 6.816c.64 0 1.166-.216 1.576-.648.411-.432.616-1.01.616-1.736 0-.725-.205-1.304-.616-1.736-.41-.432-.936-.648-1.576-.648s-1.165.216-1.576.648c-.41.432-.616 1.01-.616 1.736 0 .725.206 1.304.616 1.736.411.432.936.648 1.576.648zm13.033-4.64h-2.912V38h-2.48v-6.56H81.34v-2.048h8.304v2.048zm4.33-2.176c1.333 0 2.357.317 3.072.952.714.635 1.072 1.592 1.072 2.872V38H95.78v-1.072c-.47.8-1.344 1.2-2.624 1.2-.662 0-1.235-.112-1.72-.336-.486-.224-.856-.533-1.112-.928a2.415 2.415 0 0 1-.384-1.344c0-.8.3-1.43.904-1.888.602-.459 1.533-.688 2.792-.688h1.984c0-.544-.166-.963-.496-1.256-.331-.293-.827-.44-1.488-.44-.46 0-.91.072-1.352.216a3.577 3.577 0 0 0-1.128.584l-.896-1.744c.469-.33 1.032-.587 1.688-.768a7.562 7.562 0 0 1 2.024-.272zm-.192 7.184c.426 0 .805-.099 1.136-.296a1.62 1.62 0 0 0 .704-.872v-.88h-1.712c-1.024 0-1.536.336-1.536 1.008 0 .32.125.573.376.76.25.187.594.28 1.032.28zm14.425-7.056V38h-2.496v-6.56h-2.72l-.08 1.52c-.043 1.13-.15 2.07-.32 2.816-.171.747-.448 1.333-.832 1.76-.384.427-.918.64-1.6.64-.363 0-.795-.064-1.296-.192l.128-2.048c.17.021.293.032.368.032.373 0 .653-.136.84-.408.186-.272.312-.619.376-1.04.064-.421.112-.979.144-1.672l.128-3.456h7.36z"/>
        <use fill="#056EFF" fill-rule="nonzero" xlink:href="#a"/>
    </g>
</svg>
